<svg width="72" height="72" viewBox="0 0 72 72" fill="none" xmlns="http://www.w3.org/2000/svg">
<rect x="57.2308" y="50.769" width="8" height="50.9116" rx="3" transform="rotate(135 57.2308 50.769)" fill="white"/>
<rect x="57.2308" y="50.769" width="8" height="50.9116" rx="3" transform="rotate(135 57.2308 50.769)" fill="white"/>
<rect x="57.2308" y="50.769" width="8" height="50.9116" rx="3" transform="rotate(135 57.2308 50.769)" fill="white"/>
<rect x="57.2308" y="50.769" width="8" height="50.9116" rx="3" transform="rotate(135 57.2308 50.769)" fill="white"/>
<rect x="50.7693" y="14.7695" width="8" height="50.9116" rx="3" transform="rotate(45 50.7693 14.7695)" fill="white"/>
<rect x="50.7693" y="14.7695" width="8" height="50.9116" rx="3" transform="rotate(45 50.7693 14.7695)" fill="white"/>
<rect x="50.7693" y="14.7695" width="8" height="50.9116" rx="3" transform="rotate(45 50.7693 14.7695)" fill="white"/>
<rect x="50.7693" y="14.7695" width="8" height="50.9116" rx="3" transform="rotate(45 50.7693 14.7695)" fill="white"/>
</svg>
