<svg width="36" height="39" viewBox="0 0 36 39" fill="none" xmlns="http://www.w3.org/2000/svg">
<g filter="url(#filter0_d)">
<path fill-rule="evenodd" clip-rule="evenodd" d="M25.6334 3.57237L25.6338 3.57264C26.5247 4.28332 27.4156 4.994 28.3064 5.7056C28.4352 5.80859 28.5644 5.90776 28.6923 6.00589L28.6923 6.00591C29.4642 6.59816 30.1863 7.1522 30.4431 8.27483C30.5602 8.79231 30.5949 9.31162 30.6296 9.83147L30.6296 9.83154C30.6443 10.0507 30.6589 10.2699 30.6797 10.4892C31.0605 14.6406 31.3452 18.7957 31.6002 22.9545C31.6631 23.9563 31.7222 24.9582 31.7814 25.96C31.7875 26.0645 31.7944 26.168 31.8012 26.2707L31.8012 26.2707C31.8649 27.2243 31.9234 28.1016 31.286 29.0061C30.5688 30.0264 29.7593 30.3221 28.5615 30.3221H25.3971H12.8985H9.76735C9.71687 30.3221 9.63715 30.3225 9.53545 30.3229C8.81802 30.326 7.00671 30.3337 6.64731 30.2593C5.59744 30.0486 4.73611 29.3092 4.36274 28.3074C4.10711 27.6216 4.19061 26.4651 4.24966 25.6474L4.24966 25.6473C4.26063 25.4954 4.27076 25.3551 4.27771 25.2317C4.5217 21.0729 4.79156 16.9141 5.13905 12.759C5.1449 12.6899 5.15315 12.587 5.16352 12.4575C5.25147 11.3596 5.49285 8.34663 5.73422 7.76468C6.08141 6.93268 7.19609 6.07685 7.97431 5.47935L7.97433 5.47934C8.11586 5.37067 8.24626 5.27055 8.3589 5.18067L9.81541 4.01805L11.2719 2.85543C11.3279 2.81064 11.4034 2.74938 11.4936 2.67626C12.0881 2.19407 13.3188 1.19596 13.7746 1.00337C14.4309 0.725222 15.6368 0.74299 16.4607 0.755131C16.6114 0.757351 16.7493 0.759383 16.8688 0.759383H19.9925C20.0913 0.760072 20.1893 0.760023 20.2865 0.759974C21.2324 0.759499 22.1028 0.759062 22.961 1.43958C23.8518 2.15113 24.7426 2.86175 25.6334 3.57237ZM21.0942 2.84085H16.0112C15.8636 2.84085 15.7152 2.83253 15.569 2.82434C14.8434 2.78366 14.1717 2.746 13.9225 3.74285C13.8364 4.08211 13.8502 4.41352 13.8641 4.74566L13.8641 4.7457C13.8693 4.86956 13.8745 4.99353 13.8745 5.11804C13.8745 5.12878 13.8728 5.14063 13.8711 5.15256C13.8653 5.19399 13.8594 5.23633 13.9225 5.23633H14.063H14.3476H14.9169H19.9999H21.2309H21.8483H22.0036C22.0178 5.23633 22.0356 5.24219 22.0537 5.24811C22.0964 5.26215 22.1403 5.27656 22.1403 5.21415V4.83339C22.1403 4.7395 22.1434 4.64642 22.1465 4.55385V4.55382C22.1581 4.20539 22.1694 3.86414 22.0147 3.51366C21.8187 3.08114 21.6043 2.84085 21.0942 2.84085ZM26.229 16.6296H24.4915C24.4213 20.16 21.5378 22.988 18.0037 22.988C14.4697 22.988 11.5862 20.1637 11.516 16.6296H9.77852C9.84875 21.1211 13.5122 24.7254 18.0037 24.7254C22.499 24.7254 26.1587 21.1211 26.229 16.6296Z" fill="#47EFD1"/>
</g>
<defs>
<filter id="filter0_d" x="0.193642" y="0.749512" width="35.6391" height="37.5638" filterUnits="userSpaceOnUse" color-interpolation-filters="sRGB">
<feFlood flood-opacity="0" result="BackgroundImageFix"/>
<feColorMatrix in="SourceAlpha" type="matrix" values="0 0 0 0 0 0 0 0 0 0 0 0 0 0 0 0 0 0 127 0"/>
<feOffset dy="3.99429"/>
<feGaussianBlur stdDeviation="1.99714"/>
<feColorMatrix type="matrix" values="0 0 0 0 0 0 0 0 0 0 0 0 0 0 0 0 0 0 0.25 0"/>
<feBlend mode="normal" in2="BackgroundImageFix" result="effect1_dropShadow"/>
<feBlend mode="normal" in="SourceGraphic" in2="effect1_dropShadow" result="shape"/>
</filter>
</defs>
</svg>
