<svg width="97" height="105" viewBox="0 0 97 105" fill="none" xmlns="http://www.w3.org/2000/svg">
<g filter="url(#filter0_dd)">
<circle cx="48.4421" cy="50.4421" r="40.4421" fill="url(#paint0_linear)"/>
</g>
<g filter="url(#filter1_ii)">
<circle cx="48.4421" cy="50.4421" r="37.1407" fill="url(#paint1_linear)"/>
</g>
<g filter="url(#filter2_d)">
<path fill-rule="evenodd" clip-rule="evenodd" d="M56.217 37.5404L56.2174 37.5407C57.1083 38.2514 57.9992 38.962 58.8901 39.6737C59.0188 39.7766 59.148 39.8758 59.2759 39.9739L59.276 39.974C60.0478 40.5662 60.7699 41.1203 61.0268 42.2429C61.1438 42.7604 61.1785 43.2797 61.2132 43.7995L61.2132 43.7996C61.2279 44.0187 61.2425 44.238 61.2634 44.4572C61.6441 48.6086 61.9288 52.7638 62.1838 56.9226C62.2467 57.9244 62.3058 58.9262 62.365 59.928C62.3711 60.0326 62.378 60.1361 62.3849 60.2387L62.3849 60.2388C62.4485 61.1924 62.5071 62.0697 61.8696 62.9741C61.1525 63.9944 60.3429 64.2902 59.1451 64.2902H55.9807H43.4821H40.351C40.3005 64.2902 40.2208 64.2905 40.1191 64.2909C39.4016 64.294 37.5903 64.3018 37.2309 64.2273C36.1811 64.0166 35.3197 63.2773 34.9464 62.2754C34.6907 61.5896 34.7742 60.4332 34.8333 59.6154L34.8333 59.6154C34.8443 59.4634 34.8544 59.3232 34.8613 59.1998C35.1053 55.0409 35.3752 50.8821 35.7227 46.727C35.7285 46.6579 35.7368 46.5551 35.7471 46.4255C35.8351 45.3277 36.0765 42.3147 36.3178 41.7327C36.665 40.9007 37.7797 40.0449 38.5579 39.4474L38.5579 39.4474C38.6995 39.3387 38.8299 39.2386 38.9425 39.1487L40.399 37.9861L41.8555 36.8235C41.9115 36.7787 41.9871 36.7174 42.0772 36.6443C42.6717 36.1621 43.9024 35.164 44.3582 34.9714C45.0145 34.6933 46.2204 34.711 47.0444 34.7232C47.195 34.7254 47.3329 34.7274 47.4524 34.7274H50.5761C50.675 34.7281 50.7729 34.7281 50.8701 34.728C51.816 34.7275 52.6864 34.7271 53.5446 35.4076C54.4354 36.1192 55.3262 36.8298 56.217 37.5404ZM51.6778 36.8087H46.5948C46.4472 36.8087 46.2988 36.8004 46.1526 36.7922C45.4271 36.7515 44.7553 36.7139 44.5061 37.7107C44.42 38.05 44.4338 38.3814 44.4477 38.7135L44.4477 38.7135C44.4529 38.8374 44.4581 38.9614 44.4581 39.0859C44.4581 39.0966 44.4564 39.1085 44.4547 39.1204C44.4489 39.1618 44.443 39.2042 44.5061 39.2042H44.6466H44.9313H45.5006H50.5836H51.8146H52.4319H52.5872C52.6014 39.2042 52.6193 39.21 52.6373 39.216C52.6801 39.23 52.724 39.2444 52.724 39.182V38.8012C52.724 38.7073 52.7271 38.6143 52.7301 38.5217V38.5217C52.7417 38.1732 52.7531 37.832 52.5983 37.4815C52.4023 37.049 52.1879 36.8087 51.6778 36.8087ZM56.8126 50.5975H55.0751C55.0049 54.1278 52.1214 56.9558 48.5873 56.9558C45.0533 56.9558 42.1698 54.1315 42.0996 50.5975H40.3621C40.4324 55.089 44.0958 58.6933 48.5873 58.6933C53.0826 58.6933 56.7423 55.089 56.8126 50.5975Z" fill="url(#paint2_linear)"/>
</g>
<defs>
<filter id="filter0_dd" x="0.0114288" y="0.014286" width="96.8614" height="104.85" filterUnits="userSpaceOnUse" color-interpolation-filters="sRGB">
<feFlood flood-opacity="0" result="BackgroundImageFix"/>
<feColorMatrix in="SourceAlpha" type="matrix" values="0 0 0 0 0 0 0 0 0 0 0 0 0 0 0 0 0 0 127 0"/>
<feOffset dy="5.99143"/>
<feGaussianBlur stdDeviation="3.99429"/>
<feColorMatrix type="matrix" values="0 0 0 0 0 0 0 0 0 0 0 0 0 0 0 0 0 0 0.25 0"/>
<feBlend mode="normal" in2="BackgroundImageFix" result="effect1_dropShadow"/>
<feColorMatrix in="SourceAlpha" type="matrix" values="0 0 0 0 0 0 0 0 0 0 0 0 0 0 0 0 0 0 127 0"/>
<feOffset dy="-5.99143"/>
<feGaussianBlur stdDeviation="1.99714"/>
<feColorMatrix type="matrix" values="0 0 0 0 0.5875 0 0 0 0 0.5875 0 0 0 0 0.5875 0 0 0 0.04 0"/>
<feBlend mode="normal" in2="effect1_dropShadow" result="effect2_dropShadow"/>
<feBlend mode="normal" in="SourceGraphic" in2="effect2_dropShadow" result="shape"/>
</filter>
<filter id="filter1_ii" x="11.3014" y="9.30712" width="74.2815" height="80.2729" filterUnits="userSpaceOnUse" color-interpolation-filters="sRGB">
<feFlood flood-opacity="0" result="BackgroundImageFix"/>
<feBlend mode="normal" in="SourceGraphic" in2="BackgroundImageFix" result="shape"/>
<feColorMatrix in="SourceAlpha" type="matrix" values="0 0 0 0 0 0 0 0 0 0 0 0 0 0 0 0 0 0 127 0" result="hardAlpha"/>
<feOffset dy="-3.99429"/>
<feGaussianBlur stdDeviation="1.99714"/>
<feComposite in2="hardAlpha" operator="arithmetic" k2="-1" k3="1"/>
<feColorMatrix type="matrix" values="0 0 0 0 0 0 0 0 0 0 0 0 0 0 0 0 0 0 0.06 0"/>
<feBlend mode="normal" in2="shape" result="effect1_innerShadow"/>
<feColorMatrix in="SourceAlpha" type="matrix" values="0 0 0 0 0 0 0 0 0 0 0 0 0 0 0 0 0 0 127 0" result="hardAlpha"/>
<feOffset dy="1.99714"/>
<feGaussianBlur stdDeviation="0.998571"/>
<feComposite in2="hardAlpha" operator="arithmetic" k2="-1" k3="1"/>
<feColorMatrix type="matrix" values="0 0 0 0 0.829167 0 0 0 0 0.829167 0 0 0 0 0.829167 0 0 0 0.08 0"/>
<feBlend mode="normal" in2="effect1_innerShadow" result="effect2_innerShadow"/>
</filter>
<filter id="filter2_d" x="30.7773" y="34.7176" width="35.6391" height="37.5638" filterUnits="userSpaceOnUse" color-interpolation-filters="sRGB">
<feFlood flood-opacity="0" result="BackgroundImageFix"/>
<feColorMatrix in="SourceAlpha" type="matrix" values="0 0 0 0 0 0 0 0 0 0 0 0 0 0 0 0 0 0 127 0"/>
<feOffset dy="3.99429"/>
<feGaussianBlur stdDeviation="1.99714"/>
<feColorMatrix type="matrix" values="0 0 0 0 0 0 0 0 0 0 0 0 0 0 0 0 0 0 0.25 0"/>
<feBlend mode="normal" in2="BackgroundImageFix" result="effect1_dropShadow"/>
<feBlend mode="normal" in="SourceGraphic" in2="effect1_dropShadow" result="shape"/>
</filter>
<linearGradient id="paint0_linear" x1="48.4421" y1="10" x2="48.4421" y2="90.8843" gradientUnits="userSpaceOnUse">
<stop stop-color="#1C222B"/>
<stop offset="1" stop-color="#1B212C"/>
</linearGradient>
<linearGradient id="paint1_linear" x1="48.4421" y1="13.3014" x2="48.4421" y2="87.5829" gradientUnits="userSpaceOnUse">
<stop stop-color="#22262D"/>
<stop offset="1" stop-color="#272D37"/>
</linearGradient>
<linearGradient id="paint2_linear" x1="40.9581" y1="41.1212" x2="55.1762" y2="62.1771" gradientUnits="userSpaceOnUse">
<stop stop-color="#C4C4C4"/>
<stop offset="1" stop-color="#ABBCCB"/>
</linearGradient>
</defs>
</svg>
