<svg width="19" height="22" viewBox="0 0 19 22" fill="none" xmlns="http://www.w3.org/2000/svg">
<path d="M0.426453 9.40202C0.426453 4.01398 4.02149 0.42215 9.4136 0.42215C14.8057 0.42215 18.4007 4.91209 18.4007 9.40202C18.4007 12.195 15.7928 16.03 10.5771 20.9075C9.91136 21.5301 8.88458 21.5558 8.18818 20.9676C3.0137 16.5953 0.426453 12.7399 0.426453 9.40202ZM9.4136 11.1982C11.0681 11.1982 12.4092 9.85793 12.4092 8.20504C12.4092 6.55185 11.0678 5.21184 9.4136 5.21184C7.75907 5.21184 6.41798 6.55185 6.41798 8.20504C6.41769 9.85793 7.75907 11.1979 9.4136 11.1982Z" fill="#ABBCCB"/>
</svg>
