<svg width="1055" height="64" viewBox="0 0 1055 64" fill="none" xmlns="http://www.w3.org/2000/svg">
<path d="M1 38.1476C78.5 -2.00001 97.5 72.2013 239.243 25.7599C306.135 3.84306 292.757 47.6767 348.946 38.1476C405.135 28.6186 429.216 36.2418 453.297 32.9066C477.378 29.5715 507.703 11.9427 548.73 20.5189C589.757 29.095 586.189 45.7708 625.432 44.8179C656.827 44.0556 693 42.7099 739 32.9066C757.485 28.9672 777.5 38.5 863.5 28.9981C919.396 22.8224 974.545 33.6818 1023 32.5" stroke="white" stroke-opacity="0.2" stroke-width="4"/>
<path d="M2 37.5C63.5 61.3849 140.501 35.775 163.346 29.7205C191.903 22.1524 243.662 41.0727 269.542 41.0727C295.421 41.0727 324.87 22.6254 341.826 23.5714C358.781 24.5174 376.629 46.2757 390.015 46.2757C403.401 46.2757 407.863 45.8027 427.496 29.7205C447.129 13.6383 475.685 14.5843 490.856 33.0315C506.027 51.4788 516.736 63.304 534.584 61.8849C552.432 60.4659 571.172 38.7076 581.881 25.4634C592.589 12.2193 609.545 -5.75497 639.887 5.59718C670.228 16.9493 672 25.4634 693.5 33.0315C693.5 33.0315 738.326 50.0597 765 41.0727C826.5 20.3522 835 27 867.5 35C900 43 977 30 1054.5 33.5" stroke="white" stroke-width="4"/>
</svg>
