<svg width="26" height="25" viewBox="0 0 26 25" fill="none" xmlns="http://www.w3.org/2000/svg">
<path d="M25.4881 10.902C25.43 10.6161 25.2928 10.3512 25.0915 10.1359C24.8901 9.92056 24.6323 9.76295 24.3457 9.68013L23.9246 9.58837C22.9065 9.28826 22.0448 8.61974 21.5163 7.71993C20.9877 6.82013 20.8324 5.75727 21.0821 4.74936L21.2109 4.36494C21.2871 4.0777 21.2835 3.7759 21.2006 3.49043C21.1178 3.20497 20.9586 2.9461 20.7393 2.74035C20.2598 2.37563 19.7516 2.04816 19.2195 1.76096C18.7093 1.47119 18.1782 1.2162 17.6303 0.999849C17.3336 0.908953 17.0172 0.898321 16.7148 0.969088C16.4124 1.03986 16.1354 1.18937 15.9133 1.40165L15.6211 1.703C14.849 2.41576 13.8251 2.81143 12.7617 2.80796C11.7063 2.80178 10.6929 2.40352 9.92816 1.69431L9.64481 1.40165C9.42277 1.18937 9.14576 1.03986 8.84336 0.969088C8.54095 0.898321 8.22451 0.908953 7.92782 0.999849C7.38899 1.21676 6.86684 1.47112 6.36539 1.76096C5.84128 2.04879 5.34193 2.37622 4.87132 2.74035C4.65641 2.94862 4.50187 3.20862 4.42339 3.49396C4.34491 3.7793 4.34529 4.0798 4.42449 4.36494L4.54437 4.74936C4.79243 5.76193 4.63287 6.82869 4.09853 7.73004C3.58581 8.62051 2.73468 9.2789 1.72863 9.56326L1.3244 9.65502C1.04613 9.72006 0.793609 9.86341 0.598253 10.0673C0.402896 10.2711 0.273322 10.5264 0.225646 10.8015C0.148367 11.3791 0.116663 11.9606 0.131524 12.543C0.114681 13.136 0.146386 13.7291 0.225646 14.3173C0.272282 14.6001 0.395613 14.8657 0.582871 15.0864C0.77013 15.3072 1.01451 15.4751 1.29071 15.5729L1.68504 15.6656C2.69991 15.9708 3.55309 16.649 4.06385 17.5568C4.59985 18.458 4.75937 19.5253 4.50969 20.5375L4.42449 20.9142C4.35074 21.2028 4.35721 21.5054 4.44323 21.7907C4.52926 22.0761 4.69173 22.334 4.91392 22.5378C5.37364 22.9029 5.86208 23.2332 6.37331 23.5259C6.88157 23.8272 7.41262 24.09 7.96249 24.3121C8.56686 24.4976 9.22671 24.343 9.67948 23.9103L9.95392 23.6176C10.7293 22.9005 11.7573 22.5007 12.8261 22.5007C13.8949 22.5007 14.923 22.9005 15.6984 23.6176L15.9738 23.9103C16.1958 24.1226 16.4728 24.2721 16.7752 24.3429C17.0776 24.4136 17.3941 24.403 17.6908 24.3121C18.2215 24.086 18.735 23.8232 19.2274 23.5259C19.7577 23.2398 20.2633 22.9122 20.7393 22.5465C21.1911 22.1312 21.3784 21.5101 21.2288 20.9219L21.1079 20.5288C20.8621 19.5189 21.0224 18.4557 21.5559 17.5575C22.0893 16.6593 22.9554 15.9944 23.9762 15.6994L24.3715 15.6067C24.6578 15.5237 24.9155 15.3661 25.1167 15.1507C25.3178 14.9354 25.4548 14.6706 25.5128 14.3849C25.5822 13.8063 25.605 13.2249 25.5822 12.6434C25.5949 12.0614 25.5631 11.4793 25.4871 10.902H25.4881ZM12.7964 18.5864C11.1796 18.5864 9.62904 17.9603 8.48579 16.8458C7.34254 15.7312 6.70027 14.2196 6.70027 12.6434C6.70027 11.0672 7.34254 9.55561 8.48579 8.44109C9.62904 7.32656 11.1796 6.70042 12.7964 6.70042C14.4132 6.70042 15.9638 7.32656 17.107 8.44109C18.2503 9.55561 18.8926 11.0672 18.8926 12.6434C18.8926 14.2196 18.2503 15.7312 17.107 16.8458C15.9638 17.9603 14.4132 18.5864 12.7964 18.5864Z" fill="white"/>
</svg>
