<?xml version="1.0" standalone="no"?><!DOCTYPE svg PUBLIC "-//W3C//DTD SVG 1.1//EN" "http://www.w3.org/Graphics/SVG/1.1/DTD/svg11.dtd"><svg t="1619884370854" class="icon" viewBox="0 0 1024 1024" version="1.1" xmlns="http://www.w3.org/2000/svg" p-id="2017" xmlns:xlink="http://www.w3.org/1999/xlink" width="200" height="200"><defs><style type="text/css"></style></defs><path d="M832 592c0 10.752-3.968 20.096-11.904 28.096l-280 280C532.096 908.096 522.752 912 512 912c-10.816 0-20.16-3.904-28.096-11.904L203.904 620.096C195.904 612.096 192 602.752 192 592s3.904-20.096 11.904-28.096C211.84 555.904 221.184 552 232 552l560 0c10.752 0 20.096 3.904 28.096 11.904C828.032 571.904 832 581.248 832 592zM832 384c0 10.752-3.968 20.096-11.904 28.096-8 8-17.344 11.904-28.096 11.904l-560 0c-10.816 0-20.16-3.904-28.096-11.904C195.904 404.096 192 394.752 192 384s3.904-20.096 11.904-28.096l280-280C491.84 67.968 501.184 64 512 64c10.752 0 20.096 3.968 28.096 11.904l280 280C828.032 363.904 832 373.248 832 384z" p-id="2018" fill="#ffffff"></path></svg>